<svg width="102" height="22" viewBox="0 0 102 22" fill="none" xmlns="http://www.w3.org/2000/svg">
<path fill-rule="evenodd" clip-rule="evenodd" d="M6.83234 0.81689C8.11772 0.290301 9.52494 0 11 0H22V8.79624L21.9995 8.80332V11.0001C21.9995 13.0728 21.4263 15.0116 20.4297 16.6666C18.5051 19.8625 15.0022 22 10.9995 22C5.9388 22 1.6765 18.5829 0.394003 13.93L0.392698 13.9234C0.136719 12.9925 0 12.0122 0 10.9999C0 6.39957 2.82343 2.45902 6.83234 0.81689ZM10.9995 20.0215C6.87649 20.0215 3.3951 17.2543 2.32042 13.4723L2.31995 13.4699L2.3004 13.3988C2.09097 12.6372 1.97851 11.8333 1.97851 10.9999C1.97851 7.22996 4.29097 3.99593 7.58239 2.6477C8.63384 2.21694 9.78658 1.97849 11 1.97849H20.0215V8.72874L20.021 8.73561V11.0001C20.021 12.7032 19.551 14.2904 18.7348 15.6459C17.1533 18.2722 14.28 20.0215 10.9995 20.0215Z" fill="#42B55B"/>
<path d="M16.563 8.86794C16.563 8.86794 17.285 8.23927 17.285 7.46377C17.285 6.68826 16.563 5.89258 16.563 5.89258L9.86473 12.9057L5.81257 8.8503C5.81257 8.8503 5.10645 9.23194 5.10645 10.2354C5.10646 11.0582 5.75823 11.6 5.75823 11.6L9.86473 15.714L16.563 8.86794Z" fill="#42B55B"/>
<path d="M33.7277 4.06234H41.3162V1.9082H31.4512V19.0434H33.7277V11.7732H40.9979V9.61905H33.7277V4.06234Z" fill="white"/>
<path fill-rule="evenodd" clip-rule="evenodd" d="M56.8491 19.3614C58.6442 19.3614 60.1701 18.7413 61.4266 17.501C62.6832 16.2608 63.3115 14.7349 63.3115 12.9235C63.3115 11.1121 62.6832 9.58626 61.4266 8.34599C60.1701 7.10573 58.6442 6.4856 56.8491 6.4856C55.054 6.4856 53.5281 7.10573 52.2715 8.34599C51.0313 9.58626 50.4111 11.1121 50.4111 12.9235C50.4111 14.7349 51.0313 16.2608 52.2715 17.501C53.5281 18.7413 55.054 19.3614 56.8491 19.3614ZM59.9335 16.0323C59.1011 16.8646 58.0731 17.2807 56.8491 17.2807C55.6415 17.2807 54.6215 16.8646 53.7892 16.0323C52.957 15.2 52.5408 14.1637 52.5408 12.9235C52.5408 11.6832 52.957 10.647 53.7892 9.81472C54.6215 8.98244 55.6415 8.5663 56.8491 8.5663C58.0731 8.5663 59.1011 8.98244 59.9335 9.81472C60.7657 10.647 61.1818 11.6832 61.1818 12.9235C61.1818 14.1637 60.7657 15.2 59.9335 16.0323Z" fill="white"/>
<path d="M79.7616 6.80396H81.9891L78.1949 19.0434H76.0163L73.1523 9.98621L70.2883 19.0434H68.1096L64.3154 6.80396H66.543L69.2357 16.1059L72.1242 6.80396H74.1804L77.0689 16.1304L79.7616 6.80396Z" fill="white"/>
<path d="M102 6.80396H99.8697V13.2909C99.8697 14.6617 99.5437 15.6816 98.8906 16.3507C98.2378 17.0035 97.3811 17.3299 96.3203 17.3299C95.3738 17.3299 94.6313 17.0606 94.0927 16.5221C93.5542 15.9672 93.2849 15.1921 93.2849 14.1966V6.80396H91.1553V14.319C91.1553 15.8693 91.5877 17.1014 92.4526 18.0153C93.3175 18.9128 94.4681 19.3616 95.9041 19.3616C97.683 19.3616 99.0048 18.6681 99.8697 17.2809V19.0434H102V6.80396Z" fill="white"/>
<path d="M44.0977 1.9043H46.2373L46.2289 8.6274L46.2778 15.3564C46.28 15.9535 46.4224 16.5736 46.8006 16.9447C47.3936 17.5267 48.4193 17.6458 49.2671 17.2479L49.2059 19.0877C49.2059 19.0877 48.2053 19.3778 47.5082 19.3778C46.811 19.3778 46.1428 19.2456 45.5879 18.87C45.067 18.5173 44.6925 18.1008 44.4567 17.5088C44.2033 16.8729 44.0977 16.123 44.0977 15.4498V1.9043Z" fill="white"/>
<path d="M86.541 1.9043H84.4014V15.4498C84.4014 16.123 84.507 16.8729 84.7604 17.5088C84.9962 18.1008 85.3707 18.5173 85.8917 18.87C86.4465 19.2456 87.1148 19.3778 87.8119 19.3778C88.5091 19.3778 89.5097 19.0877 89.5097 19.0877L89.5708 17.2479C88.7231 17.6458 87.6974 17.5267 87.1043 16.9447C86.7262 16.5736 86.5838 15.9535 86.5816 15.3564L86.5327 8.6274L86.541 1.9043Z" fill="white"/>
</svg>
